<svg width="740" height="683" viewBox="0 0 740 683" fill="none" xmlns="http://www.w3.org/2000/svg">
<path d="M634.603 255.604C596.089 109.686 463.008 4.35337 306.801 0.128584C224.219 -2.10495 137.319 24.2837 74.0503 116.627C-39.0503 281.702 81.0006 395.773 164.697 449.977C205.132 476.217 241.567 507.769 272.945 543.718C329.479 608.355 438.238 688.675 567.765 562.825C661.646 471.609 660.258 352.799 634.603 255.604Z" fill="#F2F2F2"/>
<path d="M739.143 580.556C739.143 616.374 576.918 683 372.572 683C168.227 683 0 620.504 0 584.687C0 548.869 168.227 553.293 372.572 553.293C576.918 553.293 739.143 544.738 739.143 580.556Z" fill="#3F3D56"/>
<path opacity="0.1" d="M739.143 580.556C739.143 616.374 576.918 683 372.572 683C168.227 683 0 620.504 0 584.687C0 548.869 168.227 553.293 372.572 553.293C576.918 553.293 739.143 544.738 739.143 580.556Z" fill="black"/>
<path d="M370 649.127C574.345 649.127 740 620.091 740 584.274C740 548.456 574.345 519.42 370 519.42C165.655 519.42 0 548.456 0 584.274C0 620.091 165.655 649.127 370 649.127Z" fill="#3F3D56"/>
<path d="M510.076 363.708V537.156L540.188 584.438L542.48 588.034H661.294L663.694 363.708H510.076Z" fill="#2F2E41"/>
<path opacity="0.1" d="M510.076 363.708V537.156L540.188 584.438L542.036 363.708H510.076Z" fill="black"/>
<path d="M223.242 359.082V532.53L193.13 579.812L190.838 583.408H72.0227L69.6226 359.082H223.242Z" fill="#2F2E41"/>
<path opacity="0.1" d="M223.242 359.082V532.53L193.13 579.812L191.281 359.082H223.242Z" fill="black"/>
<path d="M699.699 355.613V366.02H54.0209V350.988L114.028 320.924H646.892L699.699 355.613Z" fill="#2F2E41"/>
<path opacity="0.1" d="M699.699 355.613V366.02H54.0209V350.988L699.699 355.613Z" fill="black"/>
<path opacity="0.1" d="M146.432 407.648H117.628L105.627 399.553H159.633L146.432 407.648Z" fill="black"/>
<path opacity="0.1" d="M146.432 441.181H117.628L105.627 433.087H159.633L146.432 441.181Z" fill="black"/>
<path opacity="0.1" d="M146.432 488.591H117.628L105.627 480.496H159.633L146.432 488.591Z" fill="black"/>
<path opacity="0.1" d="M146.432 535.999H117.628L105.627 527.905H159.633L146.432 535.999Z" fill="black"/>
<path opacity="0.1" d="M586.885 412.273H615.689L627.69 404.179H573.684L586.885 412.273Z" fill="black"/>
<path opacity="0.1" d="M586.885 445.806H615.689L627.69 437.712H573.684L586.885 445.806Z" fill="black"/>
<path opacity="0.1" d="M586.885 493.215H615.689L627.69 485.122H573.684L586.885 493.215Z" fill="black"/>
<path opacity="0.1" d="M586.885 540.625H615.689L627.69 532.53H573.684L586.885 540.625Z" fill="black"/>
<path d="M456.618 291.988L452.615 316.614C452.615 316.614 432.907 326.701 446.764 326.998C460.622 327.295 525.905 326.998 525.905 326.998C525.905 326.998 538.531 326.998 518.515 316.317L514.511 290.504L456.618 291.988Z" fill="#3F3D56"/>
<path opacity="0.1" d="M443.976 326.731C446.668 324.634 449.561 322.789 452.615 321.221L456.618 296.596L514.511 296.648L518.515 320.925C521.804 322.56 524.905 324.526 527.765 326.79C530.336 326.224 533.146 324.124 518.515 316.317L514.511 290.504L456.618 291.988L452.615 316.614C452.615 316.614 436.054 325.091 443.976 326.731Z" fill="black"/>
<path d="M606.5 120.349H364.014C358.949 120.349 354.844 124.304 354.844 129.184V286.564C354.844 291.444 358.949 295.4 364.014 295.4H606.5C611.564 295.4 615.67 291.444 615.67 286.564V129.184C615.67 124.304 611.564 120.349 606.5 120.349Z" fill="#3F3D56"/>
<path d="M606.894 129.694H363.62V260.835H606.894V129.694Z" fill="#F2F2F2"/>
<path d="M485.257 127.024C486.107 127.024 486.797 126.36 486.797 125.541C486.797 124.721 486.107 124.057 485.257 124.057C484.407 124.057 483.717 124.721 483.717 125.541C483.717 126.36 484.407 127.024 485.257 127.024Z" fill="#F2F2F2"/>
<path d="M615.67 271.219V286.564C615.67 287.724 615.433 288.873 614.973 289.945C614.512 291.017 613.836 291.992 612.985 292.812C612.133 293.633 611.122 294.283 610.009 294.727C608.897 295.171 607.704 295.4 606.5 295.4H364.014C362.81 295.4 361.617 295.171 360.504 294.727C359.392 294.283 358.381 293.633 357.529 292.812C356.678 291.992 356.002 291.017 355.541 289.945C355.081 288.873 354.843 287.724 354.844 286.564V271.219H615.67Z" fill="#3F3D56"/>
<path d="M485.257 289.021C488.488 289.021 491.108 286.497 491.108 283.383C491.108 280.27 488.488 277.746 485.257 277.746C482.026 277.746 479.406 280.27 479.406 283.383C479.406 286.497 482.026 289.021 485.257 289.021Z" fill="#F2F2F2"/>
<path d="M476.139 343.019V345.987H310.466V343.613L310.695 343.019L314.778 332.339H472.752L476.139 343.019Z" fill="#3F3D56"/>
<path d="M539.896 340.115C539.594 341.358 538.454 342.669 535.88 343.91C526.642 348.36 507.857 342.723 507.857 342.723C507.857 342.723 493.384 340.349 493.384 334.119C493.79 333.85 494.214 333.608 494.653 333.392C498.537 331.412 511.415 326.527 534.249 333.599C535.931 334.107 537.434 335.056 538.59 336.339C539.102 336.824 539.487 337.419 539.714 338.076C539.941 338.732 540.003 339.431 539.896 340.115Z" fill="#3F3D56"/>
<path opacity="0.1" d="M539.896 340.115C528.588 344.289 518.509 344.601 508.165 337.679C502.949 334.19 498.21 333.326 494.653 333.392C498.537 331.412 511.415 326.527 534.249 333.599C535.932 334.107 537.434 335.056 538.59 336.339C539.102 336.824 539.487 337.419 539.714 338.076C539.941 338.732 540.003 339.431 539.896 340.115Z" fill="black"/>
<path d="M525.718 337.679C527.929 337.679 529.721 337.148 529.721 336.492C529.721 335.837 527.929 335.305 525.718 335.305C523.507 335.305 521.715 335.837 521.715 336.492C521.715 337.148 523.507 337.679 525.718 337.679Z" fill="#F2F2F2"/>
<path opacity="0.1" d="M476.139 343.019V345.987H310.466V343.613L310.695 343.019H476.139Z" fill="black"/>
<path d="M570.815 191.629C569.508 190.37 552.733 170.01 549.901 166.651C546.851 163.293 545.544 163.923 543.583 164.133C541.623 164.343 520.491 167.911 518.094 168.121C515.698 168.541 514.173 169.38 515.698 171.479C517.005 173.368 530.948 192.259 533.998 196.667L478.445 209.471L434.439 138.315C432.696 135.796 432.26 134.957 428.339 135.167C424.418 135.377 393.7 137.895 391.522 137.895C389.343 138.105 386.947 138.945 389.125 143.982C391.304 149.02 426.16 221.225 427.032 223.324C427.903 225.423 430.517 228.781 436.399 227.522C442.499 226.053 463.413 220.805 474.959 217.867C481.059 228.361 493.259 249.771 495.656 252.92C498.705 257.118 500.884 256.278 505.459 255.019C509.162 253.969 562.536 235.498 564.933 234.449C567.329 233.399 568.854 232.769 567.111 230.46C565.804 228.781 551.862 210.52 544.455 201.075C549.465 199.815 567.547 195.198 569.508 194.568C571.686 193.938 572.122 192.889 570.815 191.629V191.629ZM469.949 211.57C469.295 211.78 438.142 218.916 436.617 219.336C434.874 219.756 434.874 219.546 434.874 218.916C434.439 218.286 397.839 145.242 397.186 144.402C396.75 143.563 396.75 142.723 397.186 142.723C397.622 142.723 426.596 140.204 427.467 140.204C428.557 140.204 428.339 140.414 428.775 141.044C428.775 141.044 469.513 208.841 470.167 209.89C471.038 210.94 470.602 211.36 469.949 211.57V211.57ZM557.526 227.312C557.962 228.152 558.615 228.571 556.872 228.991C555.347 229.621 504.37 246.203 503.28 246.623C502.191 247.042 501.538 247.252 500.23 245.363C498.923 243.474 482.366 215.978 482.366 215.978L536.612 202.334C537.919 201.914 538.355 201.704 539.226 202.964C540.098 204.433 557.09 226.682 557.526 227.312V227.312ZM561.011 190.37C559.704 190.58 539.88 195.408 539.88 195.408L523.541 173.998C523.105 173.368 522.669 172.739 523.759 172.529C524.848 172.319 543.365 169.17 544.237 168.96C545.108 168.75 545.762 168.541 546.851 170.01C547.94 171.269 561.883 188.481 562.536 189.111C563.19 189.74 562.319 190.16 561.011 190.37V190.37Z" fill="#FB503B"/>
<path d="M338.393 160.392C356.505 160.392 371.188 146.245 371.188 128.794C371.188 111.343 356.505 97.1962 338.393 97.1962C320.28 97.1962 305.597 111.343 305.597 128.794C305.597 146.245 320.28 160.392 338.393 160.392Z" fill="#FFB9B9"/>
<path d="M314.228 144.593V194.485H367.736C367.736 194.485 360.832 152.908 364.284 140.436L314.228 144.593Z" fill="#FFB9B9"/>
<path d="M420.382 211.947C420.382 211.947 369.462 187.832 369.462 186.169C369.462 184.506 364.284 173.697 360.832 173.697C357.38 173.697 328.036 164.55 311.638 177.854L309.912 188.664L246.91 228.577L264.171 289.279C264.171 289.279 275.391 300.92 271.939 309.235C268.486 317.55 274.528 359.958 274.528 359.958L410.025 355.801V299.257C410.025 299.257 414.34 285.952 416.929 281.795C419.518 277.637 416.929 265.164 416.929 265.164L437.642 240.219C437.642 240.219 435.053 216.936 420.382 211.947Z" fill="#D0CDE1"/>
<path opacity="0.1" d="M249.068 248.95L252.952 228.577C252.952 228.577 230.513 322.54 233.102 333.349C235.691 344.159 254.678 360.79 257.267 361.621C259.856 362.453 284.021 290.11 284.021 290.11L249.068 248.95Z" fill="black"/>
<path d="M261.582 226.083L246.91 228.577C246.91 228.577 224.471 322.54 227.06 333.349C229.65 344.159 248.637 360.79 251.226 361.621C253.815 362.453 277.98 290.11 277.98 290.11L261.582 226.083Z" fill="#D0CDE1"/>
<path opacity="0.1" d="M425.128 253.939L432.464 240.219C432.464 240.219 442.821 334.181 435.916 343.328C429.012 352.475 401.701 355.897 401.701 355.897L401.395 287.615L425.128 253.939Z" fill="black"/>
<path d="M426.423 229.409L437.642 240.219C437.642 240.219 447.999 334.181 441.094 343.328C434.19 352.475 406.879 355.897 406.879 355.897L406.573 287.616L426.423 229.409Z" fill="#D0CDE1"/>
<path d="M258.993 372.431C258.993 372.431 233.965 363.284 229.65 380.746C225.334 398.208 240.006 476.372 240.006 476.372C240.006 476.372 249.5 535.41 255.541 537.073C261.582 538.736 288.336 539.568 292.652 532.084C296.967 524.6 279.706 448.1 279.706 448.1L379.819 446.437C379.819 446.437 373.777 512.959 370.325 518.779C366.873 524.6 366.873 544.557 370.325 544.557C373.777 544.557 411.751 542.894 414.34 537.904C416.929 532.915 431.601 420.659 431.601 420.659C431.601 420.659 443.684 381.578 429.875 384.072C416.066 386.567 258.993 372.431 258.993 372.431Z" fill="#3F3D56"/>
<path d="M406.573 534.578C406.573 534.578 415.203 528.758 419.518 534.578C423.834 540.399 425.56 547.051 406.573 557.03C387.586 567.008 372.914 564.513 372.914 562.85V538.736L406.573 534.578Z" fill="#2F2E41"/>
<path d="M257.267 532.084C257.267 532.084 248.636 526.263 244.321 532.084C240.006 537.905 238.28 544.557 257.267 554.535C276.254 564.513 290.925 562.019 290.925 560.356V536.242L257.267 532.084Z" fill="#2F2E41"/>
<path d="M338.605 88.9522C335.339 88.8429 332.078 89.2907 328.973 90.275C326.565 91.2075 324.265 92.3799 322.111 93.7731L307.632 102.448C306.403 102.96 305.359 103.812 304.631 104.896C303.904 105.98 303.526 107.246 303.545 108.537L301.736 121.592C301.279 124.886 300.858 128.409 302.389 131.388C303.667 133.874 306.103 135.576 308.107 137.568C311.313 140.77 313.471 144.81 314.312 149.185C315.347 154.635 314.684 161.199 319.161 164.678C321.585 166.561 324.889 166.917 327.998 167.092C336.499 167.571 345.028 167.254 353.466 166.148C354.807 166.051 356.115 165.698 357.314 165.109C358.836 164.242 359.794 162.711 360.689 161.242C363.923 155.938 367.255 150.296 367.22 144.145C367.203 141.102 366.395 137.834 367.911 135.165C368.712 134.03 369.582 132.942 370.516 131.906C372.393 129.364 372.759 126.098 373.065 122.992C374.042 113.07 373.02 105.521 365.431 98.5319C358.347 92.0081 348.267 89.0123 338.605 88.9522Z" fill="#2F2E41"/>
<path d="M258.046 470.667L229.242 611.738H243.643L271.247 472.98L258.046 470.667Z" fill="#2F2E41"/>
<path d="M350.456 482.231L368.459 644.116H380.46L369.659 477.605L350.456 482.231Z" fill="#2F2E41"/>
<path d="M399.663 477.605L424.865 585.143H436.867L412.864 475.293L399.663 477.605Z" fill="#2F2E41"/>
<path d="M303.651 477.605L300.051 563.173H309.652L316.853 477.605H303.651Z" fill="#2F2E41"/>
<path d="M237.643 455.635C237.643 455.635 218.441 331.909 272.447 328.44C326.454 324.971 403.263 328.44 403.263 328.44C403.263 328.44 447.668 324.971 434.467 455.635C434.467 455.635 446.468 493.794 338.455 490.325C230.442 486.856 237.643 455.635 237.643 455.635Z" fill="#312B93"/>
<path d="M729.71 506.161C729.71 527.736 716.398 535.269 699.976 535.269C683.555 535.269 670.242 527.736 670.242 506.161C670.242 484.585 699.976 457.138 699.976 457.138C699.976 457.138 729.71 484.585 729.71 506.161Z" fill="#6C63FF"/>
<path d="M699.198 513.912L711.871 491.574L699.245 511.08L699.382 502.961L708.117 486.799L699.418 500.812L699.664 486.21L709.018 473.343L699.703 483.914L699.857 457.138L698.932 491.066L689.46 477.098L698.817 493.928L697.931 510.237L697.905 509.804L686.942 495.046L697.871 511.333L697.761 513.373L697.741 513.404L697.751 513.571L695.502 535.334H698.506L698.866 533.576L709.769 517.328L698.893 531.969L699.198 513.912Z" fill="#3F3D56"/>
<path d="M718.966 582.072H683.517L674.356 532.183H726.135L718.966 582.072Z" fill="#2F2E41"/>
<path d="M198.076 244.792H124.334V328.092H198.076V244.792Z" fill="#3F3D56"/>
<path d="M186.634 257.718H135.777V315.166H186.634V257.718Z" fill="#F2F2F2"/>
<path d="M166.302 269.919L161.138 278.537L155.973 269.919H138.776L161.138 307.237L183.499 269.919H166.302Z" fill="#4DBA87"/>
<path d="M166.302 269.919L161.138 278.537L155.973 269.919H147.72L161.138 292.309L174.555 269.919H166.302Z" fill="#435466"/>
</svg>
